# xmcd
#
# Track frame offsets:
#	150
#	14887
#	17316
#	22712
#	25591
#	29974
#	32916
#	38551
#	43623
#	45648
#	49864
#	57834
#	62823
#	65950
#	73699
#	78906
#	83157
#	88799
#	94786
#	97431
#	103107
#	106231
#	109148
#	112773
#	118549
#	122624
#
# Disc length: 1711 seconds
#
# Revision: 0
# Processed by: cddbd v1.5.1PL0 Copyright (c) Steve Scherf et al.
# Submitted via: dBpowerAMP V4.0
#
DISCID=5c06ad1a
DTITLE=Sick Terror - Eu me vendo por bem menos do que você imagina
DYEAR=2004
DGENRE=Thrash sem noção
TTITLE0=Intro - Songs to Masoch (by Ajax Free)
TTITLE1=Teoria de Cu é rola
TTITLE2=Operação Torquemada
TTITLE3=Quatro Vezes
TTITLE4=O Pior Cego
TTITLE5=Sem Meia Palavras
TTITLE6=É sempre pior
TTITLE7=Propaganda
TTITLE8=Azar seu Stigmata
TTITLE9=A mais nova porcaria
TTITLE10=A Nação das Ovelhas
TTITLE11=Boicote a Água
TTITLE12=Sai Desse Corpo (Porra!)
TTITLE13=Me Relacionar com você só atrasa a minha vida
TTITLE14=Meia Noite Na Estrada
TTITLE15=Tarde Demais
TTITLE16=Balada Nihilista DE Segunda-Feira
TTITLE17=Vida Medíocre
TTITLE18=Se Você não for moderno nunca vai ser rebelde
TTITLE19=A Nova Escória
TTITLE20=HellFest Revolution Party
TTITLE21=Lata De Lixo da Humanidade
TTITLE22=Eu quero que se foda
TTITLE23=Todos Iguais
TTITLE24=Zaratustra e o Espelho dos deuses
TTITLE25=Outro - Devil (by Ajax Free)
EXTD=
EXTT0=
EXTT1=
EXTT2=
EXTT3=
EXTT4=
EXTT5=
EXTT6=
EXTT7=
EXTT8=
EXTT9=
EXTT10=
EXTT11=
EXTT12=
EXTT13=
EXTT14=
EXTT15=
EXTT16=
EXTT17=
EXTT18=
EXTT19=
EXTT20=
EXTT21=
EXTT22=
EXTT23=
EXTT24=
EXTT25=
PLAYORDER=
